<?xml version="1.0" encoding="UTF-8"?>
<svg id="Laag_1" data-name="Laag 1" xmlns="http://www.w3.org/2000/svg" viewBox="0 0 40 36.65">
  <defs>
    <style>
      .cls-1 {
        fill: #ea4c89;
      }
    </style>
  </defs>
  <path class="cls-1" d="m20,36.65l-2.05-1.85c-3.53-3.23-6.45-6.03-8.75-8.38s-4.13-4.45-5.5-6.3c-1.37-1.85-2.33-3.53-2.88-5.03s-.83-3.02-.83-4.55c0-3,1.01-5.51,3.03-7.53C5.04,1.01,7.53,0,10.5,0c1.9,0,3.66.45,5.28,1.35s3.03,2.2,4.23,3.9c1.4-1.8,2.88-3.13,4.45-3.98s3.25-1.28,5.05-1.28c2.97,0,5.46,1.01,7.48,3.03s3.03,4.53,3.03,7.53c0,1.53-.28,3.05-.83,4.55s-1.51,3.18-2.88,5.03-3.2,3.95-5.5,6.3-5.22,5.14-8.75,8.38l-2.05,1.85Z"/>
</svg>