<?xml version="1.0" encoding="UTF-8"?>
<svg id="Laag_1" data-name="Laag 1" xmlns="http://www.w3.org/2000/svg" viewBox="0 0 40 36.65">
  <defs>
    <style>
      .cls-1 {
        fill: #ea4c89;
      }
    </style>
  </defs>
  <path class="cls-1" d="m20,36.65l-2.05-1.85c-3.53-3.24-6.44-6.03-8.74-8.38-2.3-2.35-4.14-4.45-5.51-6.3-1.37-1.85-2.33-3.53-2.88-5.03s-.83-3.02-.83-4.55c0-3.01,1.01-5.51,3.03-7.53C5.04,1.01,7.53,0,10.5,0c1.9,0,3.66.45,5.28,1.35s3.03,2.2,4.23,3.9c1.4-1.8,2.88-3.13,4.45-3.98s3.25-1.28,5.05-1.28c2.97,0,5.46,1.01,7.48,3.02,2.02,2.01,3.03,4.52,3.03,7.53,0,1.53-.28,3.05-.83,4.55s-1.51,3.18-2.88,5.03-3.2,3.95-5.51,6.3c-2.3,2.35-5.22,5.14-8.74,8.38l-2.05,1.85Zm0-3.95c3.37-3.1,6.15-5.76,8.33-7.97,2.18-2.22,3.91-4.16,5.19-5.83s2.18-3.15,2.7-4.46c.52-1.3.78-2.6.78-3.89,0-2.2-.7-4.02-2.1-5.43s-3.2-2.13-5.39-2.13c-1.72,0-3.31.53-4.77,1.58-1.46,1.05-2.64,2.53-3.54,4.43h-2.45c-.87-1.87-2.03-3.33-3.49-4.4-1.46-1.07-3.05-1.6-4.77-1.6-2.19,0-3.99.71-5.39,2.13s-2.1,3.23-2.1,5.44c0,1.29.26,2.59.78,3.91s1.42,2.82,2.7,4.5,3.03,3.63,5.23,5.83,4.97,4.83,8.3,7.9Z"/>
</svg>