<?xml version="1.0" encoding="UTF-8"?>
<svg id="Layer_1" data-name="Layer 1" xmlns="http://www.w3.org/2000/svg" viewBox="0 0 32 39.4">
  <defs>
    <style>
      .cls-1 {
        fill: #91d4e0;
      }
    </style>
  </defs>
  <path class="cls-1" d="m16,19.5c.96,0,1.79-.34,2.47-1.03.68-.69,1.03-1.51,1.03-2.48s-.34-1.79-1.03-2.47c-.69-.68-1.51-1.03-2.48-1.03s-1.79.34-2.47,1.03c-.68.69-1.03,1.51-1.03,2.48s.34,1.79,1.03,2.47c.69.68,1.51,1.03,2.48,1.03Zm.02,19.9c-.22,0-.43-.03-.63-.1s-.38-.17-.55-.3c-4.97-4.37-8.68-8.41-11.15-12.14-2.47-3.73-3.7-7.21-3.7-10.46C0,11.4,1.61,7.42,4.83,4.45,8.04,1.48,11.77,0,16,0s7.96,1.48,11.18,4.45,4.83,6.95,4.83,11.95c0,3.23-1.23,6.72-3.7,10.45s-6.18,7.78-11.15,12.15c-.17.13-.34.23-.53.3s-.38.1-.6.1Z"/>
</svg>