<?xml version="1.0" encoding="utf-8"?>
<!-- Generator: Adobe Illustrator 27.7.0, SVG Export Plug-In . SVG Version: 6.00 Build 0)  -->
<svg version="1.1" id="Laag_1" xmlns="http://www.w3.org/2000/svg" xmlns:xlink="http://www.w3.org/1999/xlink" x="0px" y="0px"
	 viewBox="0 0 48 48" style="enable-background:new 0 0 48 48;" xml:space="preserve">
<style type="text/css">
	.st0{fill:#EA4C89;}
</style>
<path class="st0" d="M24,43c-0.4,0-0.7-0.1-1.1-0.2c-0.4-0.1-0.7-0.3-0.9-0.6c-1.4-1.3-2.9-2.7-4.5-4.4s-3.2-3.4-4.6-5.3
	c-1.4-1.9-2.6-3.9-3.5-5.9C8.5,24.5,8,22.5,8,20.4c0-5,1.6-9,4.8-11.9S19.8,4,24,4s8,1.5,11.2,4.5S40,15.4,40,20.4
	c0,2.1-0.5,4.1-1.4,6.2s-2.1,4-3.5,5.9c-1.4,1.9-2.9,3.7-4.6,5.3c-1.6,1.7-3.2,3.1-4.6,4.4c-0.3,0.3-0.6,0.5-0.9,0.6
	C24.7,42.9,24.3,43,24,43z M24,23.5c1,0,1.8-0.3,2.5-1c0.7-0.7,1-1.5,1-2.5c0-1-0.3-1.8-1-2.5c-0.7-0.7-1.5-1-2.5-1
	c-1,0-1.8,0.3-2.5,1c-0.7,0.7-1,1.5-1,2.5c0,1,0.3,1.8,1,2.5C22.2,23.2,23,23.5,24,23.5z"/>
</svg>
